<svg xmlns="http://www.w3.org/2000/svg" viewBox="0 0 160 160" role="img" aria-labelledby="title desc">
<title id="title">SkyMap Ontario</title><desc id="desc">Radar sweep above a horizon</desc>
<defs><linearGradient id="g" x1="0" y1="0" x2="1" y2="1"><stop stop-color="#61dcff"/><stop offset=".55" stop-color="#4ce7a6"/><stop offset="1" stop-color="#d9ff7c"/></linearGradient><radialGradient id="bg"><stop stop-color="#123249"/><stop offset="1" stop-color="#050b12"/></radialGradient></defs>
<rect x="8" y="8" width="144" height="144" rx="42" fill="url(#bg)" stroke="#fff" stroke-opacity=".12"/>
<g fill="none" stroke-linecap="round"><path d="M36 92a48 48 0 0 1 82-34" stroke="url(#g)" stroke-width="8"/><path d="M48 91a36 36 0 0 1 60-25" stroke="#61dcff" stroke-opacity=".55" stroke-width="3"/><path d="M59 91a24 24 0 0 1 39-17" stroke="#61dcff" stroke-opacity=".35" stroke-width="3"/><path d="M35 106c18-10 29-4 43-11 14-8 25-8 43-2" stroke="#4ce7a6" stroke-width="6"/><path d="M46 119c12-5 22-1 34-7 11-5 21-3 32 1" stroke="#61dcff" stroke-width="4"/></g>
<circle cx="37" cy="92" r="6" fill="#f4fbff"/><path d="m119 30 3 9 9 3-9 3-3 9-3-9-9-3 9-3z" fill="#d9ff7c"/>
</svg>
