<svg xmlns="http://www.w3.org/2000/svg" viewBox="0 0 160 160" role="img" aria-labelledby="t d"><title id="t">SkyMap Ontario</title><desc id="d">SkyMap Ontario radar and horizon mark</desc><defs><linearGradient id="g" x1="0" y1="0" x2="1" y2="1"><stop stop-color="#61dcff"/><stop offset=".5" stop-color="#4ce7a6"/><stop offset="1" stop-color="#d9ff7c"/></linearGradient><radialGradient id="bg"><stop stop-color="#102b3d"/><stop offset="1" stop-color="#06111d"/></radialGradient></defs><g transform="translate(8 8)"><rect width="144" height="144" rx="40" fill="url(#bg)" stroke="#fff" stroke-opacity=".10"/><circle cx="72" cy="72" r="42" fill="none" stroke="url(#g)" stroke-width="8"/><path d="M72 30a42 42 0 0 1 40 29M72 42a30 30 0 0 1 28 19" fill="none" stroke="#61dcff" stroke-linecap="round" stroke-width="3" opacity=".65"/><path d="M43 92c14-9 23-4 35-12 11-7 20-8 31-4M51 103c9-4 17-1 27-6" fill="none" stroke="#4ce7a6" stroke-linecap="round" stroke-width="5"/><path d="m108 28 3 8 8 3-8 3-3 8-3-8-8-3 8-3z" fill="#d9ff7c"/><circle cx="72" cy="72" r="5" fill="#f3fbff"/></g></svg>