<svg xmlns="http://www.w3.org/2000/svg" viewBox="0 0 160 160" role="img" aria-labelledby="title desc"><title id="title">SkyMap Ontario Weather Lens</title><desc id="desc">A moving weather pulse travelling through a time lens</desc><defs><radialGradient id="bg" cx="34%" cy="24%"><stop stop-color="#17384c"/><stop offset=".55" stop-color="#071420"/><stop offset="1" stop-color="#02070d"/></radialGradient><linearGradient id="pulse" x1=".1" y1=".2" x2=".9" y2=".8"><stop stop-color="#5ee8ff"/><stop offset=".52" stop-color="#61f6bd"/><stop offset="1" stop-color="#d8ff72"/></linearGradient></defs><rect x="7" y="7" width="146" height="146" rx="44" fill="url(#bg)" stroke="#fff" stroke-opacity=".12"/><circle cx="80" cy="80" r="50" fill="none" stroke="#fff" stroke-opacity=".08" stroke-width="2"/><path d="M31 93c9-34 39-57 76-52" fill="none" stroke="url(#pulse)" stroke-width="9" stroke-linecap="round"/><path d="M43 98c8-24 30-39 57-36" fill="none" stroke="#5ee8ff" stroke-opacity=".45" stroke-width="4" stroke-linecap="round"/><path d="M32 110c18-14 30 11 50-4 12-9 24-8 45 3" fill="none" stroke="#d8ff72" stroke-width="8" stroke-linecap="round"/><path d="M47 126c15-7 25 0 38-7 12-6 22-4 31 1" fill="none" stroke="#61f6bd" stroke-width="5" stroke-linecap="round"/><circle cx="31" cy="93" r="8" fill="#f5fbff"/><circle cx="112" cy="43" r="5" fill="#d8ff72"/><path d="M112 28v7M112 51v7M97 43h7M120 43h7" stroke="#d8ff72" stroke-width="3" stroke-linecap="round"/></svg>